<?xml version="1.0" encoding="iso-8859-1"?>
<!-- Uploaded to: SVG Repo, www.svgrepo.com, Generator: SVG Repo Mixer Tools -->
<svg fill="#000000" height="800px" width="800px" version="1.1" id="Layer_1" xmlns="http://www.w3.org/2000/svg" xmlns:xlink="http://www.w3.org/1999/xlink" 
	 viewBox="0 0 512.006 512.006" xml:space="preserve">
<g>
	<g>
		<path d="M484.672,65.073c-24.993-24.992-65.529-24.992-90.522,0l-30.171,30.192c-19.697,19.697-23.855,49.04-12.495,72.825
			l-53.179,53.179l-13.631-41.943c-14.998-46.167-9.95-85.697,16.01-128.97C312.889,29.993,298.479,0,273.431,0H92.908
			C68.274,0,53.894,29.027,65.079,49.357c26.535,44.274,31.581,83.82,16.566,129.962L12.694,391.486
			C-2.592,438.578,26.31,488.511,74.748,498.72l18.784,3.949c59.105,12.449,120.17,12.449,179.262-0.002l18.78-3.944
			c48.461-10.214,77.36-60.157,62.047-107.241l-40.517-124.673l68.549-68.549c23.786,11.36,53.129,7.202,72.83-12.5l30.181-30.16
			C509.664,130.602,509.664,90.065,484.672,65.073z M282.798,456.969l-18.786,3.945c-53.306,11.232-108.38,11.232-161.694,0.003
			l-18.781-3.948c-23.621-4.979-37.719-29.334-30.263-52.302l68.947-212.153c17.228-52.942,13.207-101.106-12.019-149.847h145.926
			c-25.216,48.74-29.238,96.881-12.032,149.845l68.95,212.162C320.514,427.636,306.427,451.985,282.798,456.969z M454.502,125.425
			l-30.181,30.16c-8.336,8.335-21.836,8.335-30.166,0.005s-8.33-21.831,0-30.161l30.171-30.192
			c8.325-8.325,21.847-8.325,30.177,0.005C462.832,103.573,462.832,117.095,454.502,125.425z"/>
	</g>
</g>
</svg>