<?xml version="1.0" encoding="iso-8859-1"?>
<!-- Uploaded to: SVG Repo, www.svgrepo.com, Generator: SVG Repo Mixer Tools -->
<svg fill="#000000" height="800px" width="800px" version="1.1" id="Layer_1" xmlns="http://www.w3.org/2000/svg" xmlns:xlink="http://www.w3.org/1999/xlink" 
	 viewBox="0 0 512 512" xml:space="preserve">
<g>
	<g>
		<g>
			<path d="M256,0c-37.259,0-73.404,8.076-106.592,23.345C138.514,8.905,123.902,0,106.667,0c-38.554,0-64,44.537-64,96
				c0,5.914,0.34,11.735,0.994,17.41C15.417,155.34,0,204.548,0,256c0,75.811,32.967,143.916,85.333,190.791v22.542
				c0,11.782,9.551,21.333,21.333,21.333c9.11,0,16.865-5.721,19.924-13.758C164.564,499.203,208.785,512,256,512
				c141.382,0,256-114.618,256-256S397.382,0,256,0z M106.667,42.667c4.154,0,9.28,5.234,13.467,14.14
				c0.271,1.086,0.61,2.166,1.062,3.226c3.794,8.903,6.148,19.548,6.686,30.946c0.008,0.174,0.013,0.349,0.02,0.523
				c0.026,0.625,0.05,1.252,0.065,1.882C127.987,94.249,128,95.12,128,96c0,31.022-12.747,53.333-21.333,53.333
				c-0.205,0-0.414-0.024-0.623-0.05c-5.888-0.85-15.041-13.453-18.875-34.658c-0.169-0.937-0.405-1.832-0.675-2.701
				c-0.737-4.97-1.16-10.302-1.16-15.925C85.333,64.978,98.081,42.667,106.667,42.667z M42.667,256
				c0-31.345,6.862-61.667,19.768-89.382c6.346,8.993,14.06,16.033,22.898,20.395V384.01C58.545,348.353,42.667,304.031,42.667,256z
				 M256,469.333c-48.027,0-92.344-15.875-128-42.659V187.013c26.327-12.993,42.667-49.777,42.667-91.013
				c0-1.44-0.023-2.873-0.063-4.301c-0.001-0.025-0.001-0.05-0.002-0.075c-0.287-10.197-1.578-20.074-3.771-29.333
				C194.6,49.445,224.815,42.667,256,42.667c117.818,0,213.333,95.515,213.333,213.333S373.818,469.333,256,469.333z"/>
			<path d="M426.667,234.667h-66.136c-9.884-48.686-52.929-85.333-104.531-85.333c-58.907,0-106.667,47.759-106.667,106.667
				S197.093,362.667,256,362.667c51.601,0,94.646-36.648,104.531-85.333h66.136c11.782,0,21.333-9.551,21.333-21.333
				C448,244.218,438.449,234.667,426.667,234.667z M256,320c-35.343,0-64-28.657-64-64s28.657-64,64-64s64,28.657,64,64
				S291.343,320,256,320z"/>
		</g>
	</g>
</g>
</svg>