<?xml version="1.0" encoding="iso-8859-1"?>
<!-- Uploaded to: SVG Repo, www.svgrepo.com, Generator: SVG Repo Mixer Tools -->
<svg fill="#283618" height="800px" width="800px" version="1.1" id="Layer_1" xmlns="http://www.w3.org/2000/svg" xmlns:xlink="http://www.w3.org/1999/xlink" 
	 viewBox="0 0 512.001 512.001" xml:space="preserve">
<g>
	<g>
		<path d="M433.624,177.565H360.07l5.454-73.354c10.407-8.766,17.561-20.835,20.063-34.379c5.924-32.057-15.339-62.91-47.396-68.835
			c-15.53-2.869-31.247,0.504-44.257,9.456c-13.01,8.952-21.754,22.446-24.624,37.975c-2.486,13.45-0.202,27.083,6.281,38.933
			l-29.685,90.204H78.376c-9.391,0-17.369,7.989-17.369,17.38v85.49c0,67.199,37.411,126.001,91.828,157.513v40.83
			c0,18.464,14.505,33.224,32.97,33.224h140.391c18.464,0,32.97-14.761,32.97-33.224v-40.83
			c54.417-31.512,91.828-90.314,91.828-157.513v-85.49C450.994,185.554,443.016,177.565,433.624,177.565z M310.443,90.251
			c1.771-5.391,0.736-11.217-2.759-15.687c-4.436-5.673-6.232-12.93-4.927-19.989c1.219-6.596,4.934-12.299,10.459-16.102
			c5.527-3.802,12.201-5.214,18.798-3.994c13.617,2.516,22.648,15.647,20.131,29.263c-1.304,7.061-5.591,13.241-11.762,16.956
			c-4.727,2.846-7.78,7.622-8.19,13.126l-6.225,83.743h-44.262L310.443,90.251z M325.155,477.99H186.846v-24.753
			c17.005,5.931,36.581,8.881,56.481,8.881h25.347c19.901,0,39.476-2.95,56.481-8.881V477.99z M416.983,280.435
			c0,81.578-66.732,147.673-148.309,147.673h-25.347c-81.577,0-148.309-66.096-148.309-147.673v-68.86h321.966V280.435z"/>
	</g>
</g>
</svg>