<?xml version="1.0" encoding="iso-8859-1"?>
<!-- Uploaded to: SVG Repo, www.svgrepo.com, Generator: SVG Repo Mixer Tools -->
<!DOCTYPE svg PUBLIC "-//W3C//DTD SVG 1.1//EN" "http://www.w3.org/Graphics/SVG/1.1/DTD/svg11.dtd">
<svg fill="#283618" height="800px" width="800px" version="1.1" id="Capa_1" xmlns="http://www.w3.org/2000/svg" xmlns:xlink="http://www.w3.org/1999/xlink" 
	 viewBox="0 0 297 297" xml:space="preserve">
<path d="M287.153,258.478c5.438,0,9.847-4.408,9.847-9.848v-55.834c0-83.627-68.004-154.275-148.498-154.275
	C68.005,38.521,0,109.17,0,192.797v55.834c0,5.439,4.409,9.848,9.847,9.848H287.153z M272.678,157.773l-32.662,13.867
	c-3.984-16.457-12.117-31.416-23.126-43.563l26.074-25.695C256.739,118.035,267.102,136.982,272.678,157.773z M93.734,115.604
	l-26.599-26.23c19.725-17.082,44.198-28.262,70.651-30.664V97.48C121.598,99.482,106.511,105.939,93.734,115.604z M157.481,58.563
	c26.713,2.031,51.475,13.027,71.475,30.043L202.26,114.85c-13.018-9.584-28.358-15.869-44.778-17.566V58.563z M53.225,103.314
	l26.059,25.684c-10.728,12.133-18.619,26.979-22.45,43.266L24.236,158.1C29.68,137.592,39.782,118.867,53.225,103.314z
	 M54.233,192.322v46.463H19.694v-45.988c0-5.01,0.287-9.963,0.829-14.848L54.233,192.322z M97.064,201.898
	c1.593-2.837,7.428-5.489,17.36-7.73l12.277,12.277c1.538,1.537,3.554,2.307,5.57,2.307s4.032-0.77,5.57-2.307
	c3.077-3.078,3.077-8.064,0-11.143l-3.887-3.887c3.117-0.215,6.398-0.346,9.833-0.377l15.406,15.406
	c1.538,1.537,3.554,2.307,5.57,2.307s4.032-0.77,5.571-2.307c3.076-3.078,3.076-8.064,0-11.143l-2.767-2.766
	c15.449,2.199,24.992,6.135,26.983,8.975c2.447,3.488-0.258,6.875-4.515,8.781c-3.543,1.586-5.824,5.105-5.824,8.988v18.273h-77.792
	v-18.273c0-3.883-2.28-7.402-5.824-8.988C97.035,208.697,94.667,206.167,97.064,201.898z M77.372,201.692
	c-1.216,5.985-0.075,16.294,9.357,23.233v13.859H73.928v-44.188c0-42.33,34.15-78.09,74.573-78.09
	c40.422,0,74.571,35.76,74.571,78.09v44.188h-19.163v-13.816c10.339-7.404,11.368-17.94,10.339-23.848
	c-1.414-8.121-5.914-18.288-26.552-24.477c-11.624-3.486-27.101-5.311-42.373-5.311c-15.213,0-30.527,1.849-41.939,5.326
	C83.667,182.667,78.834,194.5,77.372,201.692z M242.767,191.887l33.673-14.273c0.565,4.994,0.866,10.061,0.866,15.184v45.988
	h-34.539V191.887z"/>
</svg>