<?xml version="1.0" encoding="iso-8859-1"?>
<!-- Uploaded to: SVG Repo, www.svgrepo.com, Generator: SVG Repo Mixer Tools -->
<svg fill="#283618" height="800px" width="800px" version="1.1" id="Layer_1" xmlns="http://www.w3.org/2000/svg" xmlns:xlink="http://www.w3.org/1999/xlink" 
	 viewBox="0 0 512.002 512.002" xml:space="preserve">
<g>
	<g>
		<path d="M486.454,196.665c-15.899-9.198-34.865-9.223-50.79-0.067l-9.44,5.449v-30.144c0-9.734-8.115-17.946-17.849-17.946
			H298.988l102.14-101.979c6.883-6.883,6.883-17.963,0-24.846c-6.882-6.883-18.042-6.843-24.926,0.04L249.911,153.323
			c-0.248,0.248-0.468,0.633-0.699,0.633H50.461c-9.734,0-17.871,8.212-17.871,17.946v72.584c0,39.623,11.345,78.153,32.576,111.608
			c9.364,14.755,20.593,28.167,33.156,39.917H17.625C7.891,396.011,0,403.903,0,413.637s7.891,17.625,17.625,17.625H49.79
			c5.06,32.901,33.867,58.751,68.537,58.751h222.079c34.67,0,63.476-25.851,68.537-58.751h32.268
			c9.734,0,17.625-7.891,17.625-17.625s-7.891-17.625-17.625-17.625h-80.697c12.562-11.75,23.67-25.116,33.033-39.87
			c2.966-4.674,5.715-9.481,8.287-14.181h20.555c49.241,0,89.612-40.153,89.612-89.395V240.69
			C512,222.321,502.353,205.863,486.454,196.665z M372.83,431.262c-4.427,14.1-17.286,23.5-32.426,23.5H118.325
			c-15.138,0-27.997-9.4-32.425-23.5H372.83z M390.974,244.486c0,63.096-35.091,120.974-89.905,151.525H157.768
			c-54.813-30.551-89.926-88.428-89.926-151.525v-55.279h323.131V244.486z M476.75,252.566
			c-0.001,29.803-24.558,54.144-54.361,54.144h-5.882c6.246-19.975,9.717-41.011,9.717-62.223v-1.777l26.934-15.553
			c7.047-4.051,13.355-1.336,15.699,0.02c2.344,1.356,7.893,5.386,7.893,13.513V252.566z"/>
	</g>
</g>
</svg>