<?xml version="1.0" encoding="utf-8"?>
<!-- Uploaded to: SVG Repo, www.svgrepo.com, Generator: SVG Repo Mixer Tools -->
<svg fill="#283618" width="800px" height="800px" viewBox="0 0 32 32" version="1.1" xmlns="http://www.w3.org/2000/svg">
<title>square-rounded</title>
<path d="M26 1.25h-20c-2.622 0.003-4.747 2.128-4.75 4.75v20c0.003 2.622 2.128 4.747 4.75 4.75h20c2.622-0.003 4.747-2.128 4.75-4.75v-20c-0.003-2.622-2.128-4.747-4.75-4.75h-0zM29.25 26c-0.001 1.794-1.456 3.249-3.25 3.25h-20c-1.794-0.002-3.248-1.456-3.25-3.25v-20c0.002-1.794 1.456-3.248 3.25-3.25h20c1.794 0.002 3.248 1.456 3.25 3.25v0z"></path>
</svg>